# xmcd
#
# Track frame offsets: 
#        150
#        12611
#        22061
#        46224
#        68466
#        85125
#        98522
#        116030
#        125633
#        140220
#
# Disc length: 2044 seconds
#
# Revision: 0
# Processed by: cddbd v1.5.2PL0 Copyright (c) Steve Scherf et al.
# Submitted via: ExactAudioCopy v1.0b3
#
DISCID=8707fa0a
DTITLE=JT Coldfire - Always and Never
DYEAR=2012
DGENRE=Blues
TTITLE0=Get It On (in the Back of the Bar)
TTITLE1=It's Alright With Me
TTITLE2=Rather Die in My Sleep
TTITLE3=Let's Go for a Drive
TTITLE4=Feelin' the Music
TTITLE5=Toast to a Bluesman
TTITLE6=I'm the Best Thing You Ever Had
TTITLE7=Party Lovin Pappa
TTITLE8=Tell Me, Mama
TTITLE9=Tired Man's Blues
EXTD=
EXTT0=
EXTT1=
EXTT2=
EXTT3=
EXTT4=
EXTT5=
EXTT6=
EXTT7=
EXTT8=
EXTT9=
PLAYORDER=
